# xmcd
#
# Track frame offsets: 
#        150
#        18065
#        36090
#        51457
#        68035
#        82910
#        98050
#        114225
#        129402
#        143467
#
# Disc length: 2133 seconds
#
# Revision: 4
# Processed by: cddbd v1.5.2PL0 Copyright (c) Steve Scherf et al.
# Submitted via: ExactAudioCopyFreeDBPlugin 1.0
#
DISCID=7208530a
DTITLE=brand new heavies - heavy rhyme experience: vol. 1
DYEAR=1992
DGENRE=Funk and Hip-Hop
TTITLE0=bonafied funk (feat main source)
TTITLE1=it's gettin hectic (feat gang starr)
TTITLE2=who makes the loot? (feat grand puba)
TTITLE3=wake me when i'm dead (feat masta ace)
TTITLE4=jump n' move (feat jamalski)
TTITLE5=death threat (feat kool g. rap)
TTITLE6=state of yo (feat black sheep)
TTITLE7=do what I gotta do (feat ed o.g.)
TTITLE8=whatgabouthat (feat tiger)
TTITLE9=soul flower (feat the pharcyde)
EXTD=Except there never was a volume 2...\nAnd anyway why are there no
EXTD=\ncategories for funk or hiphop?\n
EXTT0=
EXTT1=
EXTT2=
EXTT3=
EXTT4=
EXTT5=
EXTT6=
EXTT7=
EXTT8=
EXTT9=
PLAYORDER=
